<?xml version="1.0" encoding="UTF-8" standalone="no"?>
<svg xmlns:dc="http://purl.org/dc/elements/1.1/" xmlns:cc="http://creativecommons.org/ns#" xmlns:rdf="http://www.w3.org/1999/02/22-rdf-syntax-ns#" xmlns:svg="http://www.w3.org/2000/svg" xmlns="http://www.w3.org/2000/svg" xmlns:sodipodi="http://sodipodi.sourceforge.net/DTD/sodipodi-0.dtd" xmlns:inkscape="http://www.inkscape.org/namespaces/inkscape" width="300" height="100" viewBox="0 0 1079 358" version="1.0" id="svg3349" sodipodi:version="0.32" inkscape:version="0.46" sodipodi:docname="Pakistan_International_Airlines_Logo.svg" inkscape:output_extension="org.inkscape.output.svg.inkscape">
  <metadata id="metadata3455">
    <rdf:RDF>
      <cc:Work rdf:about="">
        <dc:format>image/svg+xml</dc:format>
        <dc:type rdf:resource="http://purl.org/dc/dcmitype/StillImage"/>
      </cc:Work>
    </rdf:RDF>
  </metadata>
  <defs id="defs3453">
    <inkscape:perspective sodipodi:type="inkscape:persp3d" inkscape:vp_x="0 : 223.75 : 1" inkscape:vp_y="0 : 1000 : 0" inkscape:vp_z="1348.75 : 223.75 : 1" inkscape:persp3d-origin="674.375 : 149.16667 : 1" id="perspective3457"/>
  </defs>
  <sodipodi:namedview inkscape:window-height="669" inkscape:window-width="640" inkscape:pageshadow="2" inkscape:pageopacity="0.0" guidetolerance="10.0" gridtolerance="10.0" objecttolerance="10.0" borderopacity="1.0" bordercolor="#666666" pagecolor="#ffffff" id="base" showgrid="false" inkscape:zoom="0.40333642" inkscape:cx="674.375" inkscape:cy="223.75" inkscape:window-x="92" inkscape:window-y="95" inkscape:current-layer="svg3349"/>
  <g id="#ffffffff"/>
  <g id="#01402bff">
    <path d="M 892.94,12.69 C 893.65,11.76 895.05,10.57 894.83,12.69 C 906.21,13.38 917.59,12.88 929,12.93 C 935.79,12.67 942.6,13.15 949.37,12.49 C 951.73,16.12 955.59,20.27 954.5,24.83 C 955.02,25.37 955.66,25.76 956.41,26 C 987.14,99.42 1017.66,172.93 1048.84,246.17 C 1051.82,252.7 1054.11,259.68 1058.51,265.46 C 1061.01,268.46 1064.15,270.86 1066.59,273.93 C 1066.35,274.3 1065.87,275.03 1065.64,275.4 C 1043.48,276.96 1021.24,275.72 999.05,276.32 C 999.91,274.09 1000.96,271.94 1002.32,269.97 C 1003.06,267.21 1003.29,264.23 1002.43,261.47 C 992.74,238.55 982.61,215.79 973.18,192.76 C 971.14,191.54 968.84,190.91 966.49,190.73 C 936.12,186.79 905.19,187.1 874.87,191.34 C 871.9,191.38 870.54,194.25 869.62,196.62 C 861.35,217.67 853.23,238.79 844.74,259.76 C 843.13,264.14 843.22,269.95 846.97,273.23 C 847.25,273.91 847.41,274.62 847.45,275.36 C 844.75,276.4 841.81,276.1 838.99,276.18 C 831.14,276.11 823.28,276.32 815.44,276.1 C 813.34,275.42 811.25,274.68 809.37,273.55 C 809.24,270.62 810.79,267.87 810.47,264.89 C 822.64,235.09 834.05,204.9 846.04,174.98 C 861.22,136.23 876.53,97.52 891.66,58.75 C 894.57,51.23 897.75,43.78 899.94,36.01 C 901.06,31.64 902.22,26.65 899.71,22.52 C 897.89,18.33 892.94,17.24 890.11,13.94 C 890.82,13.63 892.24,13 892.94,12.69 M 919.42,69.24 C 908.28,97.76 897.07,126.24 885.84,154.73 C 884.43,158.56 882.21,162.44 882.76,166.66 C 902.68,169.32 922.89,168.99 942.95,168.63 C 949.32,167.99 955.9,168.42 962.08,166.55 C 960.99,161.86 958.69,157.59 956.93,153.15 C 947.97,131.49 938.75,109.94 929.77,88.29 C 927.05,81.93 924.7,75.38 921.33,69.32 C 920.85,69.3 919.9,69.26 919.42,69.24 z" id="path3353" style="opacity:1;fill:#01402b"/>
    <path d="M 307.9,14.41 C 322.29,10.84 336.92,15.5 351.46,14.68 C 354.63,16.27 355.28,20.38 352.97,22.97 C 343.98,29.88 336.55,38.64 327.57,45.54 C 326.43,48.02 325.1,50.56 325.12,53.36 C 325.59,65.22 325.25,77.11 325.36,88.98 C 325.17,95.06 326.01,101.27 324.34,107.22 C 323.6,111.22 321.06,114.5 318.56,117.57 C 313.94,123.26 309,128.84 303.03,133.16 C 300.86,134.79 298.13,134.71 296.24,132.73 C 297.27,126.4 300.77,120.58 300.63,114.04 C 299.94,99.36 300.94,84.63 300.08,69.96 C 300.3,65.23 301.95,60.42 305.25,56.96 C 311.56,50.68 317.9,44.43 324.1,38.04 C 323.89,37.43 323.49,36.22 323.28,35.61 C 314,34.78 304.48,33.89 295.39,36.55 C 291.79,37.8 288.74,40.36 285.04,41.3 C 281.56,42.34 279.45,37.07 281.92,34.9 C 286.9,29.89 291.98,24.93 297.62,20.65 C 300.72,18.09 303.84,15.29 307.9,14.41 z" id="path3355" style="opacity:1;fill:#01402b"/>
    <path d="M 210.18,16.22 C 212.32,14.27 216.41,13.07 218.33,15.89 C 219.24,18.57 217.93,21.27 216.58,23.53 C 214.19,27.55 212.55,32.25 213.03,36.98 C 213.23,44.68 222.56,49.88 229.42,47.34 C 237,42.96 243.03,36.39 248.71,29.83 C 250.96,27.15 254.83,25.41 258.24,26.85 C 265.62,29.73 271.63,35.47 275.84,42.08 C 282.29,52.58 286.58,64.6 287.05,76.99 C 287.3,84.77 285.53,92.76 281.11,99.25 C 276.17,105.85 269.23,110.59 263.94,116.86 C 262.49,118.37 263.21,120.37 263.74,122.1 C 267.58,123.92 271.41,125.84 275.54,126.93 C 275.12,127.54 274.73,128.16 274.35,128.79 C 275.23,128.58 276.02,128.18 276.73,127.61 C 290.98,133.51 305.51,139.5 317.6,149.3 C 326.77,156.29 333.3,167.32 333.22,179.04 C 332.69,192.04 328.9,204.99 321.81,215.94 C 313.65,229.41 301.22,239.71 288.02,248.01 C 262.74,263.24 233.98,271.7 205.06,276.7 C 190.69,279.23 176.13,280.27 161.58,281.21 C 164.91,289.89 172.34,296.34 180.94,299.55 C 191.77,303.82 203.56,304.73 215.09,305.12 C 222.71,305.96 230.32,304.84 237.95,304.88 C 247.35,304.69 256.72,303.91 266.1,303.47 C 294.61,300.92 322.97,294.22 348.94,282.03 C 363.92,274.65 378.96,265.29 387.97,250.79 C 394.15,241.01 395.15,228.14 390.43,217.56 C 386.58,209.65 379.32,204.12 371.79,199.95 C 361.98,194.93 351.99,190.26 342.29,185.02 L 342.7,183.91 C 343.03,183.06 343.36,182.21 343.69,181.36 C 341.86,180.5 340.33,179.18 339.19,177.52 C 339.83,176.7 340.48,175.88 341.14,175.07 C 340.9,173.34 340.82,171.58 341.1,169.85 C 341.18,169.62 341.33,169.14 341.41,168.91 C 346.42,165.15 350.1,159.98 354.67,155.74 C 359.07,151.76 362.99,147.27 366.51,142.51 C 369.3,138.17 368.38,132.72 367.18,128.02 C 364.67,118.33 358.14,110.51 352.39,102.59 C 350.47,100.38 348.26,97.38 345.03,97.6 C 341.46,98.79 337.47,100.01 333.89,98.19 C 333.58,97.14 333.27,96.1 332.96,95.05 C 333.28,94.05 333.61,93.05 333.94,92.05 C 338.79,88.61 342.8,84.17 347.37,80.4 C 351.72,76.37 356.32,72.63 360.53,68.46 C 363.34,65.67 368.39,65.91 371.1,68.76 C 378.58,75.7 385.99,83.1 390.81,92.21 C 394.98,100.33 396.88,110.21 393.55,118.96 C 390.81,126.72 384.66,132.47 379.85,138.94 C 376.9,142.74 374.91,147.19 371.84,150.9 C 370.3,152.84 368.74,155.48 369.99,157.96 C 371.58,162.13 375.99,164.03 379.04,166.97 C 392.44,178.66 404.63,193.29 408.32,211.12 C 411.61,226.07 407.33,241.72 399.4,254.5 C 387.25,273.11 373.11,291 354.51,303.55 C 336.77,315.67 316.67,323.65 297.11,332.3 C 272.87,343.06 246.59,349.35 220.06,350.17 C 206.97,350.42 193.79,349.1 181.11,345.74 C 168.78,342.14 156.09,336.4 148.55,325.53 C 143.01,317.93 141.44,307.94 143.35,298.83 C 144.37,293.03 147.09,287.75 149.14,282.28 C 134.38,280.78 119.45,280.12 104.99,276.56 C 93.43,273.9 82.19,269.39 72.45,262.55 C 66.54,258.24 60.52,253.26 57.91,246.19 C 54.64,237.74 55.91,228.46 57.97,219.88 C 59.35,214.89 60.43,209.63 63.81,205.54 C 60.95,203.39 57.22,204.19 53.9,203.88 C 46.67,203.22 39.25,202.91 32.4,200.28 C 28.3,198.78 24.57,196.45 21.02,193.96 C 17.04,191.25 12.71,188.72 9.91,184.69 C 7.1,179.36 7.33,172.57 10.44,167.41 C 13.25,163.26 17.43,160.38 21.02,156.98 C 27.11,151.05 33.59,145.55 39.78,139.73 C 44.62,135.63 48.72,130.56 54.39,127.56 C 61.3,123.88 69.1,121.75 76.95,121.82 C 87.33,121.85 97.71,121.75 108.1,121.9 C 114.48,122.16 117.18,113.69 123.71,114.48 C 124.71,115.96 125.62,117.51 126.42,119.11 C 125.83,120.26 125.48,121.58 124.53,122.51 C 119.19,127.83 113.79,133.08 108.59,138.54 C 103.02,144.39 95.13,148.18 86.99,148.18 C 71.33,148.21 55.68,148.16 40.02,148.18 C 34.92,151 31.1,157.06 32.84,162.96 C 34.31,169.61 41.57,173.25 47.96,172.95 C 107.65,172.96 167.34,172.96 227.03,172.95 C 233.01,172.58 239.05,174.05 244.95,172.44 C 248.93,171.94 251.77,167.43 256.03,168.98 C 256.41,170.34 256.83,171.69 257.27,173.04 C 255.8,175.87 253.2,177.78 250.99,179.98 C 245.21,185.56 239.18,190.87 233.53,196.58 C 228.55,201.89 221.24,204.63 214.07,205 C 167.81,205.2 121.53,204.8 75.27,205.2 C 74.15,207.82 72.31,210.72 73.46,213.64 C 75.37,217.16 78.02,220.29 81.16,222.79 C 90.96,230.5 103.2,234.11 115.19,236.75 C 140.11,241.86 165.68,242.16 191.03,241.97 C 212.76,242.13 234.55,241.66 256.1,238.57 C 269.64,236.57 283.25,233.63 295.61,227.54 C 302.15,224.02 308.78,219.78 312.62,213.21 C 318.05,204.63 318.56,192.71 313.07,184.05 C 307.1,175.97 297.69,171.71 289.18,166.9 C 271.28,156.8 251.19,151.88 231.86,145.35 C 229.11,143.78 227.47,141.15 226.72,138.13 C 227.7,135.34 228.66,132.23 231.22,130.47 C 234.75,128.02 238.39,125.7 241.55,122.77 C 249.2,116.8 257.16,110.79 262.62,102.63 C 266.34,97.39 264.93,90.36 262.48,84.89 C 257.77,75.46 253.93,65.22 246.29,57.67 C 243.34,55.06 240.23,52.04 236.04,51.86 C 229.37,58.21 222.47,64.37 216.16,71.13 C 213.91,72.78 212.19,76.01 209.12,75.92 C 205.63,74.88 205.49,70.7 205.46,67.68 C 199.88,64.74 193.46,60.74 192.57,53.9 C 190.86,46.03 192.73,37.7 197.01,30.96 C 200.41,25.26 205.17,20.52 210.18,16.22 z" id="path3357" style="opacity:1;fill:#01402b"/>
  </g>
  <g id="#00412bff">
    <path d="M 698.79,12.67 C 712.86,12.89 726.93,12.86 741,12.84 C 751.42,12.97 761.84,12.23 772.24,13.19 C 771.11,14.34 769.94,15.44 768.8,16.56 C 764.1,21.88 762.54,29.04 762.36,35.95 C 762.37,105.97 762.36,176 762.36,246.02 C 762.92,251.76 763.64,257.66 766,262.97 C 768.73,267.67 772.95,271.66 777.82,274.07 C 775.9,274.39 773.97,274.62 772.04,274.6 C 747.62,274.6 723.2,274.6 698.78,274.6 C 700.81,270.54 705.49,268.82 707.67,264.89 C 709.7,261.25 711.07,257.14 710.96,252.93 C 710.95,181.32 710.95,109.7 710.96,38.09 C 711.1,33.15 710.67,28 708.35,23.55 C 706.08,19.31 702.26,16.27 698.7,13.18 C 698.38,13.49 697.74,14.1 697.42,14.41 C 697.87,13.83 698.32,13.25 698.79,12.67 z" id="path3360" style="opacity:1;fill:#00412b"/>
  </g>
  <g id="#01412bff">
    <path d="M 475.77,13.7 C 493.17,12.79 510.63,14.07 528.03,12.95 C 544.16,12.67 560.27,13.52 576.4,13.85 C 591.75,14.62 607.43,15.51 621.91,21.2 C 636.56,26.58 649.67,36.99 656.74,51.07 C 664.74,66.63 666.48,85.4 660.88,102.04 C 656.34,117.91 645.38,131.51 631.46,140.2 C 612.52,152.19 589.82,156.58 567.73,157.71 L 567.57,156.01 C 567.56,156.52 567.55,157.54 567.55,158.04 C 557.49,158.51 547.48,157.33 537.44,157.44 C 537.26,186.62 537.41,215.81 537.37,245 C 537.94,252.76 539.1,260.94 543.69,267.46 C 545.71,270.7 548.69,273.15 550.94,276.2 C 525.66,276.16 500.37,276.2 475.09,276.19 C 474.31,276.17 473.57,275.99 472.81,275.89 C 476.12,273.22 479.65,270.74 482.36,267.42 C 484.81,263.46 485.37,258.65 485.64,254.09 C 485.64,181.72 485.65,109.34 485.63,36.97 C 485.18,31.43 484.79,25.36 481.13,20.86 C 479.6,18.67 477.43,17.09 475.36,15.45 C 475.46,15.02 475.67,14.14 475.77,13.7 M 537.37,39.66 C 537.42,70.42 537.23,101.2 537.47,131.95 C 538.65,133.6 540.76,135 542.79,135.6 C 553.33,135.97 564.05,136.6 574.39,133.98 C 574.77,132.15 576.19,132.42 577.45,133.2 C 583.31,131.41 588.81,128.43 593.42,124.37 C 602.35,116.03 606.84,103.99 608.61,92.13 C 611.17,76.73 607,59.42 594.99,48.82 C 584.69,39.57 570.4,37.06 557.02,36.38 C 550.4,36.38 543.35,36.45 537.37,39.66 z" id="path3363" style="opacity:1;fill:#01412b"/>
  </g>
  <g id="#02402bff">
    <path d="M 216.28,75.28 C 218.15,73.59 220.55,74.57 222.43,75.65 C 222.65,80.83 217.79,84.7 218.15,89.97 C 218.28,105.68 218.05,121.4 218.27,137.11 C 219.07,140.93 218.94,145.15 216.54,148.41 C 211.14,154.25 205.02,159.46 200.01,165.63 C 199.66,165.63 198.96,165.62 198.62,165.62 C 196.59,165.46 194.63,166.04 192.72,166.64 C 191.86,166.14 191.01,165.64 190.16,165.15 C 191.58,160.52 193.54,155.9 193.42,150.96 C 192.5,139.67 193.13,128.32 192.95,117 C 193.17,111.35 192.08,105.46 194.28,100.07 C 195.95,94.7 200.76,91.38 204.43,87.44 C 208.25,83.25 212.72,79.7 216.28,75.28 z" id="path3366" style="opacity:1;fill:#02402b"/>
  </g>
  <g id="#04402bff">
    <path d="M 445.72,132.77 C 446.89,132.13 448.28,132.62 449.55,132.55 C 453.46,136.65 457.27,140.83 461.11,144.99 C 462.92,146.75 463.03,149.67 461.94,151.84 C 459.69,154.71 456.91,157.11 454.61,159.93 C 452.21,162.55 449.88,166.22 445.78,165.61 C 441.18,161.7 437.8,156.6 433.27,152.65 C 430.65,151.72 426.91,151.47 424.97,153.85 C 421.79,157.11 418.78,160.54 415.64,163.84 C 413.96,165.78 410.72,166.09 408.94,164.13 C 405.46,160.57 402.19,156.82 398.86,153.13 C 398.22,152.36 397.57,151.6 396.91,150.84 C 396.78,148.92 396.75,146.82 398.25,145.38 C 401.81,141.25 405.5,137.17 409.43,133.4 C 412.94,130.7 416.53,134.52 418.59,137.17 C 422.3,140.74 425.19,145.63 429.96,147.81 C 436.39,144.31 439.66,136.87 445.72,132.77 z" id="path3369" style="opacity:1;fill:#04402b"/>
  </g>
  <g id="#03402cff">
    <path d="M 425.18,165.13 C 427.03,163.31 430.48,162.5 432.39,164.67 C 435.99,168.37 439.41,172.25 442.93,176.03 C 445.06,178.12 444.81,181.85 442.77,183.92 C 439.25,187.73 435.65,191.46 432.1,195.24 C 430.95,196.58 429.03,196.3 427.48,196.21 C 424.62,194.21 422.68,191.18 420.04,188.93 C 417.57,185.21 411.95,182.02 414.55,176.83 C 418.09,172.93 421.84,169.21 425.18,165.13 z" id="path3372" style="opacity:1;fill:#03402c"/>
  </g>
  <g id="#132b22ff">
    <path d="M 190.16,165.15 C 191.01,165.64 191.86,166.14 192.72,166.64 C 194.63,166.04 196.59,165.46 198.62,165.62 L 199.47,166.04 C 197.16,168.29 194.91,172.37 191.03,170.89 C 188.27,170.11 189.22,167.04 190.16,165.15 z" id="path3375" style="opacity:1;fill:#132b22"/>
    <path d="M 342.28,184.97 C 336.63,182 335.97,173.64 341.1,169.85 C 340.82,171.58 340.9,173.34 341.14,175.07 C 340.48,175.88 339.83,176.7 339.19,177.52 C 340.33,179.18 341.86,180.5 343.69,181.36 C 343.36,182.21 343.03,183.06 342.7,183.91 L 342.28,184.97 z" id="path3377" style="opacity:1;fill:#132b22"/>
  </g>
  <g id="#c1d4ceff">
    <path d="M 65.34,259.29 C 65.81,259.82 65.81,259.82 65.34,259.29 z" id="path3380" style="opacity:1;fill:#c1d4ce"/>
  </g>
  <g id="#0d3427ff">
    <path d="M 797.49,274.88 C 802.46,272.5 807.07,269.29 810.47,264.89 C 810.79,267.87 809.24,270.62 809.37,273.55 C 811.25,274.68 813.34,275.42 815.44,276.1 C 809.48,276.28 803.52,276.08 797.57,276.22 C 797.55,275.88 797.51,275.22 797.49,274.88 z" id="path3383" style="opacity:1;fill:#0d3427"/>
  </g>
  <g id="#222021ff">
    <path d="M 547.6,302.65 C 549.35,302.61 551.11,302.58 552.87,302.52 C 553.19,311.22 552.87,319.93 553.1,328.64 C 557.24,323.88 562.03,319.77 566.47,315.31 C 569.11,314.53 571.97,314.8 574.7,314.36 C 570.38,318.77 565.7,322.82 561.51,327.37 C 566.1,334.09 570.44,340.96 574.79,347.84 C 572.49,347.99 570.19,348.16 567.91,347.94 C 563.99,342.68 560.98,336.83 557.43,331.34 C 555.96,332.7 554.48,334.04 553,335.37 C 553.01,339.59 552.95,343.82 553.1,348.05 C 551.27,348.02 549.44,347.99 547.63,347.97 C 547.64,332.86 547.69,317.75 547.6,302.65 z" id="path3386" style="opacity:1;fill:#222021"/>
    <path d="M 751.95,319.01 C 755.97,314.37 762.89,312.47 768.49,315.35 C 772.1,317 773.25,321.43 773.35,325.08 C 773.39,332.73 773.28,340.38 773.4,348.04 C 771.48,348.03 769.58,348.04 767.68,348.07 C 767.55,340.74 767.68,333.41 767.61,326.09 C 767.65,323.19 766.24,319.74 763.02,319.33 C 759.95,318.43 757.08,319.93 754.66,321.64 C 753.45,323.55 752.12,325.56 752.22,327.92 C 752.05,334.63 752.24,341.34 752.12,348.05 C 750.27,348.03 748.43,348.03 746.6,348.05 C 746.7,336.96 746.64,325.87 746.64,314.78 C 748.45,314.8 750.27,314.84 752.1,314.88 C 752.05,316.25 752,317.63 751.95,319.01 z" id="path3388" style="opacity:1;fill:#222021"/>
    <path d="M 802.23,318.03 C 808.45,311.93 819.96,313.05 824.76,320.39 C 827.01,324.25 827.04,328.89 827.28,333.23 C 819.18,333.13 811.08,333.04 802.98,333.28 C 803.36,336.95 804.22,341.07 807.53,343.26 C 812.69,345.93 819.67,343.39 821.28,337.62 C 823.15,337.61 825.02,337.6 826.91,337.61 C 825.74,340.58 824.62,343.87 821.99,345.9 C 815.37,351.24 804.03,350.14 799.62,342.48 C 795.44,334.91 796.11,324.4 802.23,318.03 M 808.13,320.03 C 804.93,321.75 803.53,325.33 802.97,328.72 C 809.14,328.93 815.33,328.89 821.51,328.74 C 820.92,325.93 820.35,322.79 818,320.88 C 815.31,318.55 811.21,318.57 808.13,320.03 z" id="path3390" style="opacity:1;fill:#222021"/>
  </g>
  <g id="#242424ff">
    <path d="M 578.93,302.64 C 580.8,302.59 582.68,302.61 584.56,302.54 C 584.61,304.64 584.63,306.74 584.65,308.84 C 582.74,308.99 580.83,309.02 578.93,309.15 C 578.95,306.98 578.95,304.81 578.93,302.64 z" id="path3393" style="opacity:1;fill:#242424"/>
  </g>
  <g id="#242021ff">
    <path d="M 730.85,301.95 C 733.25,301.99 735.66,301.98 738.08,301.9 C 737.88,317.26 738.07,332.62 737.98,347.98 C 735.63,348.01 733.27,348.01 730.93,348 C 730.99,332.65 731.14,317.3 730.85,301.95 z" id="path3396" style="opacity:1;fill:#242021"/>
  </g>
  <g id="#202020ff">
    <path d="M 942.12,302.55 C 943.92,302.57 945.73,302.59 947.55,302.61 C 947.58,304.69 947.63,306.77 947.68,308.85 C 945.73,308.93 943.79,309.03 941.86,309.12 C 941.94,306.93 941.99,304.74 942.12,302.55 z" id="path3399" style="opacity:1;fill:#202020"/>
    <path d="M 925.62,305.62 C 927.55,305.62 929.48,305.63 931.43,305.64 C 931.34,308.7 931.31,311.76 931.37,314.82 C 933.11,314.82 934.85,314.82 936.62,314.82 C 936.6,316.35 936.58,317.89 936.58,319.44 C 934.82,319.39 933.09,319.36 931.36,319.33 C 931.38,325.91 931.35,332.48 931.34,339.06 C 931.45,340.42 931.17,341.97 932.04,343.15 C 933.42,343.87 935.11,343.48 936.64,343.66 C 936.6,345.19 936.57,346.72 936.52,348.26 C 934.03,348.27 931.5,348.69 929.07,348.09 C 926.74,347.14 925.64,344.38 925.72,342 C 925.58,334.46 925.71,326.92 925.63,319.38 C 924.21,319.38 922.81,319.37 921.42,319.38 C 921.41,317.86 921.41,316.34 921.42,314.83 C 922.81,314.83 924.21,314.83 925.63,314.84 C 925.67,311.77 925.65,308.69 925.62,305.62 z" id="path3401" style="opacity:1;fill:#202020"/>
    <path d="M 942.03,314.87 C 943.88,314.95 945.75,315.04 947.63,315.11 C 947.53,326.06 947.6,337.01 947.58,347.96 C 945.68,347.99 943.78,348.05 941.9,348.12 C 942.18,337.04 941.87,325.95 942.03,314.87 z" id="path3403" style="opacity:1;fill:#202020"/>
  </g>
  <g id="#231f20ff">
    <path d="M 1060.08,301.84 C 1062.36,301.93 1064.66,301.99 1066.97,302.08 C 1067.05,317.42 1066.98,332.76 1067,348.1 C 1064.66,348.02 1062.33,347.98 1060.01,347.94 C 1060.05,332.57 1059.9,317.21 1060.08,301.84 z" id="path3406" style="opacity:1;fill:#231f20"/>
  </g>
  <g id="#211f20ff">
    <path d="M 472.01,302.62 C 479.35,302.64 486.68,302.6 494.02,302.63 C 497.74,302.62 501.31,304.56 503.58,307.48 C 508.27,314.31 505.66,325.59 497.33,328.24 C 497.16,328.6 496.83,329.32 496.67,329.68 C 496.42,329.43 495.91,328.92 495.65,328.66 C 489.89,328.48 484.12,328.69 478.36,328.51 C 478.33,334.98 478.31,341.46 478.41,347.93 C 476.27,347.98 474.13,348.02 472,348.04 C 472,332.9 471.99,317.76 472.01,302.62 M 478.35,308.05 C 478.41,313.18 478.28,318.3 478.4,323.43 C 484.11,323.35 490.12,324.51 495.62,322.51 C 501.43,320.16 500.95,310.2 494.95,308.42 C 489.47,307.52 483.87,308.17 478.35,308.05 z" id="path3409" style="opacity:1;fill:#211f20"/>
  </g>
  <g id="#201f20ff">
    <path d="M 625.34,305.62 C 627.27,305.62 629.21,305.64 631.16,305.63 C 631.15,308.72 631.15,311.81 631.19,314.9 C 632.89,314.86 634.6,314.82 636.32,314.77 C 636.34,316.31 636.33,317.85 636.33,319.4 C 634.61,319.38 632.9,319.38 631.19,319.38 C 631.23,326.89 630.97,334.42 631.3,341.93 C 631.75,344.29 634.72,343.3 636.39,343.73 C 636.38,345.2 636.37,346.67 636.38,348.15 C 633.41,348.34 630.2,348.93 627.48,347.37 C 625.6,345.47 625.6,342.54 625.43,340.04 C 625.37,333.17 625.4,326.3 625.42,319.43 C 623.96,319.42 622.51,319.41 621.06,319.41 C 620.99,317.9 620.92,316.38 620.85,314.88 C 622.39,314.84 623.93,314.81 625.48,314.77 C 625.43,311.72 625.39,308.67 625.34,305.62 z" id="path3412" style="opacity:1;fill:#201f20"/>
    <path d="M 993.23,314.59 C 992.97,311.96 995.2,314.9 996.1,315.26 C 996.1,316.55 996.12,317.84 996.16,319.14 C 999.86,315.22 1005.61,312.85 1010.93,314.67 C 1014.91,315.55 1017.39,319.44 1017.49,323.37 C 1017.73,331.55 1017.46,339.74 1017.62,347.93 C 1015.75,347.99 1013.9,348.04 1012.05,348.11 C 1011.83,340.71 1012.15,333.3 1011.92,325.9 C 1012.02,322.98 1010.27,319.53 1007.06,319.28 C 1002.11,318.33 997.17,322.14 996.62,327.11 C 996.04,334.04 996.45,341.01 996.37,347.97 C 994.47,347.99 992.59,348.02 990.72,348.05 C 990.96,337.01 990.82,325.97 990.82,314.93 C 991.42,314.85 992.63,314.68 993.23,314.59 z" id="path3414" style="opacity:1;fill:#201f20"/>
  </g>
  <g id="#221f1fff">
    <path d="M 782.6,305.56 C 784.46,305.59 786.33,305.61 788.21,305.62 C 788.15,308.68 788.14,311.74 788.19,314.8 C 789.9,314.82 791.61,314.83 793.35,314.83 C 793.37,316.35 793.4,317.88 793.44,319.4 C 791.67,319.39 789.92,319.38 788.17,319.38 C 788.22,326.62 788.04,333.87 788.22,341.12 C 788,343.98 791.41,343.59 793.32,343.73 C 793.36,345.14 793.41,346.54 793.47,347.95 C 790.29,348.72 786.93,348.6 783.97,347.14 C 783.36,345.48 782.55,343.82 782.66,342.01 C 782.64,334.46 782.64,326.91 782.65,319.36 C 781.12,319.37 779.59,319.38 778.08,319.4 C 778.02,317.88 777.96,316.36 777.91,314.84 C 779.49,314.82 781.08,314.8 782.69,314.79 C 782.64,311.71 782.62,308.64 782.6,305.56 z" id="path3417" style="opacity:1;fill:#221f1f"/>
  </g>
  <g id="#fefefeff"/>
  <g id="#212021ff">
    <path d="M 580.46,313.3 C 580.51,313.66 580.61,314.39 580.66,314.75 C 581.63,314.76 583.58,314.77 584.55,314.77 C 584.65,325.82 584.56,336.86 584.62,347.9 C 582.72,347.98 580.82,348 578.93,348.04 C 579.07,337.24 578.99,326.44 578.97,315.63 C 579.47,314.86 579.97,314.08 580.46,313.3 z" id="path3421" style="opacity:1;fill:#212021"/>
    <path d="M 964.48,314.58 C 969.97,312.84 976.56,314.28 980.46,318.64 C 983.89,322.09 984.53,327.28 984.38,331.93 C 984.24,337.66 982.19,343.86 977.24,347.19 C 971.79,349.94 964.57,350.18 959.53,346.42 C 954.59,342.61 953.42,335.92 953.82,330.05 C 953.84,323.4 957.9,316.53 964.48,314.58 M 966.17,319.25 C 961.12,320.74 959.83,326.53 959.39,331.09 C 959.28,335.48 960.43,340.47 964.16,343.22 C 967.34,344.81 971.53,344.92 974.45,342.67 C 977.08,340.85 977.62,337.41 978.32,334.52 C 979.02,330.1 978.7,324.98 975.69,321.43 C 973.35,318.7 969.42,318.61 966.17,319.25 z" id="path3423" style="opacity:1;fill:#212021"/>
  </g>
  <g id="#212020ff">
    <path d="M 687.9,314.86 C 690.72,313.72 693.88,314.38 696.76,313.46 C 696.98,313.79 697.42,314.44 697.64,314.77 C 701.29,316.22 703.4,320.09 703.4,323.93 C 703.85,331.92 703.42,339.94 703.62,347.94 C 701.69,348 699.76,348.02 697.85,348.12 C 697.81,340.72 697.89,333.32 697.82,325.93 C 697.84,323.35 696.7,320.27 693.98,319.51 C 688.82,317.73 682.83,321.66 682.44,327.11 C 682.22,334.03 682.36,340.97 682.42,347.9 C 680.52,347.97 678.62,348.04 676.74,348.11 C 676.9,337 676.9,325.89 676.58,314.78 C 678.39,314.81 680.21,314.85 682.04,314.89 C 682.02,316.3 682,317.72 681.99,319.13 C 683.76,317.47 685.53,315.65 687.9,314.86 z" id="path3426" style="opacity:1;fill:#212020"/>
    <path d="M 594.47,317.47 C 598.72,313.32 605.56,312.99 610.88,315.08 C 614.66,316.56 616.93,320.4 617.27,324.34 C 615.5,324.34 613.72,324.34 611.96,324.34 C 610.89,318.31 602.85,317.26 598.55,320.38 C 596.61,322.3 597.69,325.74 600.04,326.74 C 605.29,329.14 611.72,328.81 616.3,332.65 C 619.98,337.45 617.82,345 612.5,347.61 C 607.22,350.05 600.99,349.56 595.7,347.41 C 595.02,346.77 594.34,346.14 593.66,345.53 C 592.14,343.11 591.12,340.42 590.72,337.6 C 592.47,337.62 594.22,337.64 595.98,337.65 C 596.83,345.13 607.28,346.55 611.8,341.66 C 613.32,339.71 612.44,337.42 611.09,335.68 C 605.64,333.83 599.66,333.29 594.68,330.25 C 590.65,327.24 591.14,320.81 594.47,317.47 z" id="path3428" style="opacity:1;fill:#212020"/>
  </g>
  <g id="#201f1fff">
    <path d="M 516.52,316.55 C 520.97,313.49 526.91,313.43 531.98,314.8 C 535.01,315.7 538.22,317.93 538.45,321.38 C 538.92,328.55 538.23,335.78 538.76,342.96 C 539.54,344.16 541.27,343.85 542.49,344.33 C 542.42,345.63 542.37,346.94 542.32,348.26 C 539.78,348.4 536.88,349.11 534.7,347.38 C 534.11,346.28 533.66,345.12 533.35,343.92 C 528.39,349 519.68,351.13 513.83,346.29 C 513.24,345.46 512.63,344.65 512.01,343.85 C 510.21,339.34 511.06,333.36 515.54,330.77 C 520.72,328.13 526.75,328.59 532.32,327.44 C 532.75,325.14 533.94,322.1 531.67,320.38 C 527.19,317.04 517.97,318.31 518.01,325.17 C 516.19,325.08 514.37,324.98 512.57,324.87 C 513.12,321.87 513.71,318.32 516.52,316.55 M 520.24,334.13 C 517.31,335.1 516.06,338.82 517.54,341.46 C 520.46,345.65 527.11,344.39 530.54,341.46 C 533.66,339.01 532.9,334.75 533.09,331.28 C 528.99,333.09 524.39,332.63 520.24,334.13 z" id="path3431" style="opacity:1;fill:#201f1f"/>
  </g>
  <g id="#201e1fff">
    <path d="M 646.2,316.14 C 651.91,313.05 659.64,313.06 665.03,316.84 C 668.48,319.55 667.54,324.18 667.59,327.99 C 667.7,333.24 667.27,338.53 667.98,343.75 C 668.84,343.84 670.54,344.03 671.39,344.12 C 671.39,345.5 671.39,346.88 671.41,348.27 C 668.74,348.63 665.91,348.92 663.55,347.37 C 663.17,346.21 662.8,345.06 662.43,343.92 C 658.6,348.04 652.82,349.68 647.32,349.07 C 647.4,348.54 647.56,347.48 647.64,346.95 C 647.48,347.38 647.17,348.23 647.01,348.66 C 640.14,346.71 638.06,336.99 642.98,332.12 C 648.12,327.61 655.47,329.24 661.56,327.17 C 661.81,326.32 662.32,324.63 662.57,323.78 C 661.12,317.73 652.86,317.58 648.57,320.59 C 648.06,322.05 647.49,323.49 647.02,324.97 C 645.26,324.97 643.5,324.92 641.75,324.89 C 642.26,321.63 642.96,317.81 646.2,316.14 M 647.54,335.34 C 644.51,338.37 647.04,342.03 648.95,344.81 L 648.72,343.59 C 653.19,345.26 658.69,343.49 661.32,339.52 C 662.34,336.97 661.9,334.12 662.09,331.45 C 657.4,333.38 651.69,332.19 647.54,335.34 z" id="path3434" style="opacity:1;fill:#201e1f"/>
    <path d="M 1029.61,316.61 C 1036.3,312.49 1045.68,313.37 1051.41,318.72 C 1051.87,327.03 1051.15,335.44 1051.96,343.76 C 1053.11,343.89 1054.27,344.03 1055.45,344.17 C 1055.39,345.54 1055.37,346.92 1055.35,348.3 C 1053.19,348.45 1050.94,348.95 1048.87,348.18 C 1047.32,347.34 1046.99,345.5 1046.38,344.03 C 1042.16,348.55 1034.96,350.86 1029.25,347.86 C 1022.86,344.78 1022.63,334.29 1028.8,330.85 C 1033.89,328.12 1039.94,329.01 1045.34,327.33 C 1045.91,326.26 1046.18,325.06 1046.61,323.94 C 1045.06,316.54 1031.29,317.12 1031.04,325.14 C 1029.27,325.14 1027.52,325.24 1025.78,325.26 C 1026.27,322.17 1026.62,318.39 1029.61,316.61 M 1033.49,334.24 C 1031.04,334.93 1029.59,337.72 1030.19,340.14 C 1030.5,342.9 1033.54,344.28 1036.02,344.47 C 1039.43,344.19 1042.99,342.86 1045.1,340.02 C 1046.45,337.42 1045.86,334.36 1046.04,331.54 C 1041.97,333.01 1037.56,332.89 1033.49,334.24 z" id="path3436" style="opacity:1;fill:#201e1f"/>
  </g>
  <g id="#212121ff">
    <path d="M 839.18,320.07 C 841.57,316.53 845.23,313.52 849.78,313.96 C 849.91,315.98 850.01,318.01 850.06,320.05 C 845.42,319.29 840.31,322.16 839.77,327.09 C 839.34,334.02 839.71,340.98 839.62,347.92 C 837.75,347.98 835.89,348.06 834.04,348.14 C 833.9,337.05 834.07,325.96 833.93,314.87 C 835.67,314.84 837.43,314.82 839.2,314.79 C 839.17,316.55 839.17,318.31 839.18,320.07 z" id="path3439" style="opacity:1;fill:#212121"/>
    <path d="M 860.02,319 C 863.85,315.06 869.81,312.74 875.18,314.75 C 879.14,315.71 881.34,319.87 881.39,323.71 C 881.82,331.78 881.45,339.88 881.6,347.96 C 879.66,347.99 877.72,348.04 875.79,348.08 C 875.84,340.68 875.9,333.28 875.79,325.89 C 875.96,322.66 873.66,318.86 870.07,319.18 C 865.07,318.6 860.39,322.96 860.39,327.94 C 860.28,334.64 860.37,341.34 860.36,348.05 C 858.47,348.02 856.59,348.02 854.72,348.02 C 854.98,336.95 854.78,325.88 854.83,314.81 C 856.6,314.81 858.37,314.83 860.16,314.89 C 860.12,316.26 860.07,317.63 860.02,319 z" id="path3441" style="opacity:1;fill:#212121"/>
  </g>
  <g id="#1f1f1fff">
    <path d="M 892.46,317.57 C 896.52,313.76 902.71,313.37 907.89,314.67 C 911.51,315.25 915.3,317.84 915.44,321.81 C 915.77,328.97 915.5,336.15 915.59,343.33 C 916.75,343.63 917.92,343.92 919.11,344.21 C 919.15,345.57 919.21,346.93 919.27,348.3 C 917.15,348.44 914.92,348.98 912.89,348.16 C 911.2,347.51 910.98,345.52 910.27,344.11 C 905.63,348.69 897.58,351.3 891.94,347 C 886.76,343.43 886.77,334.59 892.05,331.14 C 897.01,328.02 903.15,329.15 908.56,327.48 C 910.63,326.24 910.27,322.77 909.18,320.93 C 905.61,317.95 899.96,318.4 896.22,320.87 C 895.76,322.29 895.31,323.72 894.92,325.16 C 893.12,325.02 891.32,324.91 889.55,324.74 C 890.12,322.23 890.35,319.34 892.46,317.57 M 897.88,334.02 C 894.42,334.7 892.72,339.26 894.88,342.05 C 896.01,343.76 898.17,343.97 899.96,344.65 C 902.76,343.84 905.91,343.38 907.97,341.1 C 910.63,338.64 909.82,334.64 910.05,331.41 C 906.16,333.05 901.88,332.91 897.88,334.02 z" id="path3444" style="opacity:1;fill:#1f1f1f"/>
  </g>
  <g id="#fefcfdff"/>
  <g id="#fefdfeff"/>
  <g id="#fcfafbff"/>
  <g id="#fbf9faff"/>
  <g id="#fcfbfbff"/>
  <g id="#fdfbfcff"/>
</svg>